<?xml version="1.0" encoding="UTF-8" standalone="no"?>
<svg viewBox="0 0 447 228" version="1.1" xmlns="http://www.w3.org/2000/svg" xmlns:xlink="http://www.w3.org/1999/xlink">
    <title>substitution</title>
    <description>substitution banner</description>
    <g id="Page-1" stroke="none" stroke-width="1" fill="none" fill-rule="evenodd">
        <path d="M15.508117,45.068072 C17.3857987,44.8309375 18.7286774,44.5345237 19.5367936,44.1788219 C20.9866491,43.562272 21.7115659,42.6018914 21.7115659,41.2976513 C21.7115659,39.7088497 21.1589654,38.6121188 20.0537477,38.0074256 C18.94853,37.4027325 17.32638,37.1003904 15.1872489,37.1003904 C12.7866686,37.1003904 11.0872733,37.693218 10.0890122,38.8788908 C9.37596851,39.7562887 8.90061319,40.9419437 8.66293196,42.4358915 L-1.14136951,42.4358915 C-0.927456411,39.0448672 0.0232542251,36.2585778 1.71079092,34.0769398 C4.39658875,30.6622021 9.00753534,28.9548588 15.543769,28.9548588 C19.7982629,28.9548588 23.5773377,29.7966739 26.8811067,31.4803293 C30.1848757,33.1639847 31.8367355,36.3415403 31.8367355,41.0130912 L31.8367355,58.7980948 C31.8367355,60.0311946 31.8605032,61.5251199 31.9080395,63.2799157 C31.9793438,64.6078693 32.1813698,65.5089671 32.5141236,65.9832363 C32.8468773,66.4575054 33.3460004,66.8487716 34.0115078,67.1570465 L34.0115078,68.6509868 L22.9593861,68.6509868 C22.6504005,67.8684427 22.4364906,67.1333366 22.31765,66.4456464 C22.1988094,65.7579561 22.1037383,64.9754238 22.032434,64.0980259 C20.6301148,65.6156871 19.0139067,66.9080511 17.1837612,67.9751567 C14.997094,69.2319699 12.5252463,69.860367 9.76814413,69.860367 C6.25046201,69.860367 3.34485263,68.8584885 1.05122882,66.8547014 C-1.242395,64.8509143 -2.3891897,62.0112705 -2.3891897,58.3356847 C-2.3891897,53.5692799 -0.547187843,50.1190237 3.13687113,47.9848126 C5.15716154,46.8228533 8.12813228,45.9928947 12.0498725,45.4949121 L15.508117,45.068072 Z M21.6759139,49.798883 C21.0341746,50.2020118 20.386503,50.5280669 19.7328796,50.7770582 C19.0792563,51.0260495 18.1820231,51.2572522 17.0411532,51.4706733 L14.7594249,51.8975134 C12.6202939,52.2769287 11.087273,52.7393342 10.1603162,53.2847437 C8.59162011,54.2095685 7.80728384,55.6442111 7.80728384,57.5887146 C7.80728384,59.3197969 8.2885811,60.570663 9.25119005,61.3413503 C10.213799,62.1120377 11.3843615,62.4973756 12.7629126,62.4973756 C14.9495798,62.4973756 16.963898,61.8571218 18.8059275,60.5765952 C20.647957,59.2960685 21.6046096,56.9603281 21.6759139,53.5693038 L21.6759139,49.798883 Z M97.6146854,36.3889903 L97.6146854,45.7439022 L59.0035636,45.7439022 L59.0035636,36.3889903 L97.6146854,36.3889903 Z M97.6146854,53.0001836 L97.6146854,62.3550955 L59.0035636,62.3550955 L59.0035636,53.0001836 L97.6146854,53.0001836 Z M131.234526,52.8223336 C131.234526,54.8854043 131.567275,56.5927476 132.232783,57.9444146 C133.468725,60.4343276 135.714779,61.6792654 138.971012,61.6792654 C140.967534,61.6792654 142.708523,60.9975137 144.19403,59.63399 C145.679538,58.2704662 146.422281,56.3082071 146.422281,53.7471538 C146.422281,50.3561295 145.04375,48.0915283 142.286648,46.9532824 C140.717952,46.3130191 138.246104,45.9928922 134.871031,45.9928922 L134.871031,38.7366108 C138.1748,38.6891839 140.480273,38.369057 141.78752,37.7762206 C144.045492,36.7802554 145.174461,34.7646418 145.174461,31.7293194 C145.174461,29.7611025 144.598092,28.1604681 143.445338,26.9273684 C142.292584,25.6942686 140.670434,25.077728 138.57884,25.077728 C136.178259,25.077728 134.413503,25.8365472 133.284517,27.3542085 C132.155531,28.8718697 131.614814,30.8993398 131.662351,33.4366797 L122.178917,33.4366797 C122.27399,30.8756264 122.713693,28.4450335 123.498041,26.1448282 C124.329926,24.1291844 125.637153,22.267706 127.419762,20.5603371 C128.750777,19.3509508 130.331333,18.4261399 132.161479,17.7858765 C133.991624,17.1456132 136.237678,16.8254864 138.899708,16.8254864 C143.843477,16.8254864 147.83052,18.1000655 150.860955,20.6492621 C153.891391,23.1984587 155.406586,26.6190735 155.406586,30.9112092 C155.406586,33.9465316 154.503411,36.5075466 152.697034,38.5943307 C151.556164,39.8985709 150.367775,40.7878121 149.131833,41.2620813 C150.05879,41.2620813 151.389785,42.0564702 153.124858,43.6452718 C155.715583,46.0403309 157.010926,49.3127388 157.010926,53.4625937 C157.010926,57.8258698 155.495731,61.6614639 152.465296,64.9694911 C149.43486,68.2775183 144.948694,69.9315071 139.006664,69.9315071 C131.686082,69.9315071 126.59978,67.5483404 123.747605,62.7819356 C122.250214,60.2445958 121.418342,56.9247616 121.251965,52.8223336 L131.234526,52.8223336 Z" id="a-=-3" fill="#417505" transform="translate(78.772601, 43.378497) rotate(-15.000000) translate(-78.772601, -43.378497) "></path>
        <path d="M313.540326,34.9791376 C316.42046,38.6336139 317.860505,43.3489964 317.860505,49.1254266 C317.860505,55.1140523 316.438238,60.0769924 313.593661,64.0143959 C310.749084,67.9517994 306.778589,69.9204716 301.682055,69.9204716 C298.481906,69.9204716 295.909973,69.2838949 293.966179,68.0107225 C292.804643,67.25625 291.548307,65.9359429 290.197133,64.0497616 L290.197133,68.8948656 L280.276721,68.8948656 L280.276721,16.8365219 L290.374919,16.8365219 L290.374919,35.3681605 C291.654978,33.5762883 293.065393,32.2088273 294.606206,31.2657367 C296.431476,30.0868734 298.754512,29.4974506 301.575384,29.4974506 C306.671918,29.4974506 310.660192,31.3246613 313.540326,34.9791376 Z M305.059973,58.4619774 C306.505967,56.3636007 307.228952,53.6051019 307.228952,50.1863983 C307.228952,47.4514354 306.873386,45.1880518 306.162241,43.3961796 C304.811067,40.0010532 302.3221,38.3035155 298.695264,38.3035155 C295.021019,38.3035155 292.496495,39.9656878 291.121616,43.2900824 C290.410472,45.0583774 290.054905,47.3453379 290.054905,50.1510326 C290.054905,53.4518499 290.789743,56.1867717 292.259441,58.3558802 C293.729139,60.5249888 295.96921,61.6095267 298.979721,61.6095267 C301.587249,61.6095267 303.61398,60.5603541 305.059973,58.4619774 Z M381.720937,36.8181552 L381.720937,46.1193402 L343.21267,46.1193402 L343.21267,36.8181552 L381.720937,36.8181552 Z M381.720937,53.3339476 L381.720937,62.6351327 L343.21267,62.6351327 L343.21267,53.3339476 L381.720937,53.3339476 Z M441.456752,57.8607601 L435.625399,57.8607601 L435.625399,68.8948656 L425.704986,68.8948656 L425.704986,57.8607601 L405.295249,57.8607601 L405.295249,49.0546952 L424.247148,17.9328593 L435.625399,17.9328593 L435.625399,49.974204 L441.456752,49.974204 L441.456752,57.8607601 Z M425.704986,49.974204 L425.704986,27.8352616 L412.797783,49.974204 L425.704986,49.974204 Z" id="b-=-4" fill="#D0011B" transform="translate(362.075676, 43.378497) rotate(12.000000) translate(-362.075676, -43.378497) "></path>
        <path d="M52.0085137,182.782729 C51.8144789,181.312991 51.3172722,179.987838 50.5168787,178.807228 C49.3526699,177.21702 47.5457479,176.421928 45.0960585,176.421928 C41.6034321,176.421928 39.2144145,178.144628 37.9289339,181.590079 C37.2498121,183.421228 36.9102563,185.854692 36.9102563,188.890544 C36.9102563,191.781832 37.2498121,194.106874 37.9289339,195.865741 C39.1659058,199.142534 41.4942884,200.780905 44.9141518,200.780905 C47.3395868,200.780905 49.0616198,200.130375 50.0803026,198.829296 C51.0989853,197.528217 51.7174619,195.841657 51.9357511,193.769568 L62.5227219,193.769568 C62.2801784,196.901796 61.1402411,199.865322 59.1028757,202.660233 C55.8527928,207.165823 51.0383765,209.418584 44.6594824,209.418584 C38.2805883,209.418584 33.587442,207.539276 30.5799026,203.780602 C27.5723632,200.021927 26.068616,195.142953 26.068616,189.14353 C26.068616,182.373098 27.7300141,177.108624 31.05286,173.34995 C34.375706,169.591276 38.9597094,167.711967 44.8050078,167.711967 C49.7771496,167.711967 53.8457558,168.820277 57.0109484,171.036931 C60.1761411,173.253585 62.0497616,177.168812 62.631866,182.782729 L52.0085137,182.782729 Z M127.681708,175.265419 L127.681708,184.77048 L88.280713,184.77048 L88.280713,175.265419 L127.681708,175.265419 Z M127.681708,192.143227 L127.681708,201.648287 L88.280713,201.648287 L88.280713,192.143227 L127.681708,192.143227 Z M162.13484,194.022554 C162.547164,196.263302 163.335418,197.992025 164.499627,199.208776 C165.663836,200.425526 167.361615,201.033892 169.593015,201.033892 C172.163976,201.033892 174.122486,200.136401 175.468602,198.341394 C176.814719,196.546386 177.487767,194.287601 177.487767,191.564972 C177.487767,188.890531 176.857163,186.631746 175.595937,184.78855 C174.334711,182.945354 172.370138,182.02377 169.702159,182.02377 C168.440933,182.02377 167.349504,182.180379 166.427838,182.493602 C164.802797,183.071859 163.577971,184.144029 162.753323,185.710143 L153.439699,185.276452 L157.150596,156.327579 L186.219289,156.327579 L186.219289,165.07368 L164.645152,165.07368 L162.753323,176.530351 C164.35411,175.494306 165.60319,174.807635 166.500601,174.470318 C168.004371,173.916155 169.835547,173.639077 171.994184,173.639077 C176.359967,173.639077 180.167843,175.096746 183.417926,178.012128 C186.668009,180.92751 188.293026,185.168002 188.293026,190.733731 C188.293026,195.576638 186.728643,199.901457 183.599832,203.70832 C180.471021,207.515182 175.790002,209.418584 169.556634,209.418584 C164.535983,209.418584 160.412806,208.081384 157.186977,205.406943 C153.961149,202.732502 152.166354,198.937743 151.802538,194.022554 L162.13484,194.022554 Z" id="c-=-5" fill="#2A44A2" transform="translate(108.672456, 182.873081) rotate(11.000000) translate(-108.672456, -182.873081) "></path>
        <path d="M304.771252,170.253969 C306.569162,171.265227 308.028482,172.665858 309.149257,174.455901 L309.149257,156.323081 L319.271204,156.323081 L319.271204,207.65291 L309.569545,207.65291 L309.569545,202.387418 C308.145227,204.642408 306.522463,206.28132 304.701204,207.304202 C302.879945,208.327084 300.61508,208.838517 297.906541,208.838517 C293.446791,208.838517 289.693419,207.042689 286.646313,203.450978 C283.599206,199.859266 282.075676,195.250554 282.075676,189.624702 C282.075676,183.1387 283.575857,178.035989 286.576265,174.316418 C289.576672,170.596847 293.586884,168.737089 298.607021,168.737089 C300.918619,168.737089 302.973342,169.242711 304.771252,170.253969 Z M307.222935,197.331151 C308.693952,195.238892 309.429449,192.53062 309.429449,189.206253 C309.429449,184.556789 308.250318,181.232472 305.892021,179.233202 C304.444354,178.024341 302.763217,177.41992 300.84856,177.41992 C297.929875,177.41992 295.787593,178.518339 294.421649,180.715211 C293.055705,182.912083 292.372743,185.637791 292.372743,188.892416 C292.372743,192.402761 293.067379,195.209833 294.456673,197.313715 C295.845967,199.417598 297.953225,200.469524 300.778512,200.469524 C303.603798,200.469524 305.751918,199.42341 307.222935,197.331151 Z M384.100697,176.025088 L384.100697,185.19611 L346.169664,185.19611 L346.169664,176.025088 L384.100697,176.025088 Z M384.100697,192.309755 L384.100697,201.480777 L346.169664,201.480777 L346.169664,192.309755 L384.100697,192.309755 Z M410.018485,197.71473 C411.442803,194.343868 414.805077,190.775458 420.105407,187.009392 C424.705254,183.73152 427.682267,181.383575 429.036537,179.965489 C431.11464,177.756993 432.153676,175.339308 432.153676,172.712361 C432.153676,170.573607 431.558274,168.795214 430.36745,167.377127 C429.176627,165.959041 427.472141,165.250008 425.253941,165.250008 C422.218509,165.250008 420.152112,166.377486 419.054686,168.632476 C418.42425,169.934326 418.050664,172.003307 417.933917,174.83948 L408.232259,174.83948 C408.395705,170.538726 409.177901,167.063303 410.578869,164.413109 C413.240709,159.36844 417.968907,156.846144 424.763604,156.846144 C430.133984,156.846144 434.406873,158.328138 437.582402,161.292172 C440.757931,164.256205 442.345671,168.179132 442.345671,173.061069 C442.345671,176.803888 441.224913,180.128205 438.983364,183.03412 C437.512347,184.963648 435.095712,187.113992 431.733388,189.485219 L427.740648,192.309755 C425.242254,194.076551 423.53193,195.355135 422.609626,196.145543 C421.687322,196.935952 420.910963,197.854208 420.280528,198.900337 L442.450743,198.900337 L442.450743,207.65291 L407.671874,207.65291 C407.765272,204.026328 408.547468,200.713634 410.018485,197.71473 Z" id="d-=-2" fill="#FAA530" transform="translate(362.075676, 182.873081) rotate(-17.000000) translate(-362.075676, -182.873081) "></path>
    </g>
</svg>