<svg xmlns="http://www.w3.org/2000/svg" viewBox="0 0 900 250"><g fill="none"><path d="M290.305 108.4h-24.046v-60.5c0-3.5-.759-5.9-2.159-7.4-1.474-1.4-4.3-2.1-8.4-2.1h-3.503v-11.3c5.343-1.1 10.003-3 13.903-5.8 3.393-2.3 6.7-5.5 10-9.7h14.205v96.8z" fill="#D43244"/><path d="M156.445 210h-51.3c1.98-7.3 5.155-13.9 9.455-19.7 3.584-4.8 8.8-10.1 15.5-15.7 5.559-4.7 9.3-8.5 11.4-11.6 2.112-3.1 3.2-6.3 3.2-9.6-.03-6.1-4.9-9.2-14.7-9.2-9.257 0-14.3 5.4-15.1 16.2l-9.857-3.3c.887-7.1 3.457-12.8 7.757-17 4.394-4 10.1-6.1 17.2-6.1 7.741 0 14 1.7 18.7 5.1 4.605 3.4 6.9 8.2 6.9 14.3.026 5.2-1.7 10.2-5.3 14.8-2.251 3-6.5 7.1-12.8 12.4-5.391 4.6-8.9 7.7-10.4 9.2-3.524 3.5-6.1 6.9-7.8 10.4h37.145v9.8z" fill="#25A4D4"/><path d="M465.337 105.3v-59.9c-2.8 2.2-5.537 4.1-8.137 5.7-2.645 1.5-6.3 3.1-10.9 4.8l.038-8.4c7.3-3.1 13.662-7.2 18.962-12.1h9.337v69.9h18.649v7.7h-46.948v-7.7h18.999zm42.448-32.6v-37.3h43.448v9h-34.148v19h1.6c11.166 0 19.815 2.3 25.815 7 6.016 4.6 9 10.9 9 18.8.033 5-1.2 9.5-3.6 13.5-2.45 3.9-5.9 7-10.3 9.3-4.45 2.2-9.2 3.4-14.2 3.4-4.966 0-11.4-1.3-19.2-3.7l.035-10.1c2.833 1.5 5.965 2.7 9.465 3.7 3.535 1 6.8 1.5 9.7 1.5 3.001 0 5.9-.7 8.7-2.1 2.867-1.5 5.1-3.6 6.6-6.3 1.6-2.8 2.4-5.6 2.4-8.4-.017-4.9-2.2-9-6.4-12.3-4.324-3.4-11.9-5-22.9-5h-6.015z" fill="#00D4BD"/><path d="M344.137 229.6v-8.1h16.187v-63.9l-16.187 4.1v-8.3l27.014-6.8v74.9h16.187v8.1h-43.201zm63.27 0v-9.5c3.135-7.3 9.492-15.3 18.992-23.9l6.217-5.5c7.948-7.2 11.883-14.3 11.883-21.4.038-4.5-1.3-8.1-4-10.7-2.752-2.6-6.5-3.9-11.2-3.9-5.633 0-12.2 2.2-19.9 6.5l.031-9.5c7.182-3.4 14.269-5.1 21.369-5.1 7.596 0 13.7 2.1 18.3 6.2 4.571 4.1 6.9 9.5 6.9 16.2-.032 4.9-1.2 9.2-3.5 12.9-2.32 3.8-6.6 8.3-12.9 13.7l-4.194 3.5c-8.64 7.4-13.606 14.4-15.006 21h35.185v9.5h-48.177z" fill="#CC00D4"/><path d="M799.121 90.8c.218 3-.921 5.5-3.321 7.7-2.472 2.2-5.2 3.3-8.1 3.3-.764 0-1.9-.3-3.5-.7-1.589-.4-2.9-.6-4-.5-1.859.3-4.8.6-8.8.7-.022 15.5-.1 23.9-.3 25.1-.048 2.2.7 5.1 2.2 8.6 1.424 3.6 2.2 6.2 2.2 7.7-.042 3.7-3.1 7-9.3 10-.697.3-1.5.5-2.5.5-3.908 0-8.2-2.2-12.7-6.4-4.59-4.2-6.6-8.4-6.1-12.6.15-.8 1.1-2.3 2.9-4.5 1.792-2.1 2.7-4.4 2.7-6.9-.228-8.3-.3-14-.3-17.3-5.259 1.4-12.1 2.7-20.6 3.9-.978.2-2.4 1.1-4.4 2.5-1.528 1.2-3 1.7-4.4 1.4-2.949-.4-5.9-2.4-8.8-5.8-3.287-4-4.7-7.9-4.3-11.8.251-2.5 1.4-4.3 3.5-5.4 2.572-1.4 4.1-2.5 4.7-3.4l33.284-59.7c.653-1.2.916-3.2.916-5.9-.073-2.7.4-4.7 1.4-5.9 1.383-1.7 3.3-2.6 5.7-2.6 4.332 0 9 2.2 14.1 6.7 5.056 4.5 7.6 8.8 7.6 12.9-.015 2.1-1.3 5.7-3.9 10.9-2.643 5.3-3.9 9.6-3.9 12.9l-.048 25.8c2.829-1.2 7.248-2.5 13.348-3.9 3.406-.2 6.6.9 9.7 3.5 3.144 2.6 4.8 5.6 5 9.2zm-47.978-30.3l-14.687 28.4 13.708-3 .979-25.4z" fill="#2771D4"/><path d="M842.323 232.9v-44.8h-7.232c-.256 1.7-.791 3.2-1.591 4.3-.819 1.2-1.8 2.1-3 2.8-1.158.7-2.5 1.2-4 1.5-1.424.2-2.9.4-4.5.3l-.028 6.9h11.263v29h9.088zm30.462-10.3v10.3h8.64v-10.3h5.952v-7.5h-5.952v-27h-8.128l-19.455 26.1v8.4h18.943zm0-23.1v15.6h-11.775l11.583-15.6h.192z" fill="#D46416"/><path d="M24.679 134c.967-5.8 2.321-10.7 4.121-14.9 1.787-4.2 4.9-10 9.5-17.3l20.178-32.5h-38.098v-9.3h47.498v9.3c-18.966 27.9-29.577 49.5-31.877 64.7h-11.321z" fill="#5AD446"/></g></svg>