<svg xmlns="http://www.w3.org/2000/svg" viewBox="0 0 900 250"><title>banner</title><path d="M317.458 32.7c41.921-3.1 86.642-4.7 133.042-4.7 239.415 0 433.5 43.4 433.5 97 0 20.2-27.5 38.9-74.6 54.4h.005c1.331-3.6 1.795-7.7 1.495-12.3-.423-6.4-2.4-11.6-6-15.7-3.546-4.1-8.4-6.7-14.5-7.6l-.037-.3c4.77-1.9 8.237-4.9 10.437-8.8 2.171-3.9 3.1-8.3 2.7-13.3-.135-2.5-.9-5.3-2.3-8.3-1.339-3-3.4-5.8-6.3-8.4-2.784-2.5-6.4-4.6-10.9-6.2-4.404-1.6-9.7-2.2-16-1.8-4.081.3-8.1 1.2-12.1 2.6-3.895 1.4-7.4 3.4-10.4 5.9-3.084 2.6-5.5 5.6-7.3 9.2-1.733 3.6-2.5 7.6-2.1 12.1.302 5 1.9 9.3 4.6 12.8 2.754 3.6 6.6 5.9 11.6 6.9l.017.3c-5.933 1.8-10.417 5-13.417 9.6-2.989 4.5-4.3 10-3.8 16.4.364 5.5 1.8 10.1 4.2 13.9 2.402 3.7 5.5 6.7 9.2 9.1-13.072 2.7-26.9 5.3-41.4 7.7 1.255-.7 2.4-1.4 3.6-2.2 4.72-3.5 8.5-7.8 11.3-13.1 2.823-5.2 4.7-11 5.7-17.3 1.031-6.4 1.3-12.6.9-18.9-.464-6.3-1.5-12.5-3.1-18.7-1.546-6.1-4-11.5-7.3-16.3-3.322-4.7-7.6-8.4-12.7-11-5.136-2.7-11.5-3.8-19.2-3.3-5.267.4-10 1.7-14.2 3.9-4.139 2.2-7.7 5.1-10.5 8.6-2.93 3.6-5.1 7.6-6.4 12.2-1.382 4.5-1.9 9.4-1.5 14.6.259 4 1.2 7.9 2.7 11.8 1.498 3.8 3.7 7.2 6.6 10 3.096 3 6.8 5.3 11 6.9 4.264 1.5 8.5 2.2 12.9 1.9 4.837-.4 9.1-1.5 12.7-3.5 3.615-2 6.7-5.1 9.2-9.3l.273.2c.003 2.8-.173 6-.573 9.6-.36 3.6-1.2 7-2.4 10.2-1.194 3.2-2.9 6-5.2 8.3-2.212 2.3-5.2 3.6-8.9 3.9-3.58.2-6.6-.8-9.2-3.1-2.572-2.3-4.3-5.2-5.2-8.5l-19.406 1.4c.883 4.4 2.306 8.2 4.406 11.5 2.07 3.3 4.6 6.1 7.7 8.3 3.001 2.2 6.4 3.8 10.2 4.7 1.274.3 2.5.5 3.8.7h-.002c-67.457 9.7-147.698 15.3-233.798 15.3-239.415 0-433.5-43.4-433.5-97 0-41.3 115.4-76.6 278-90.6l-.377 1.2 22.86 7c-6.288 4.2-11.883 9.1-16.683 14.9-4.894 5.8-8.7 12.2-11.5 19.3l10.511 3.2c1.028-3.2 2.489-6.6 4.289-10.1 1.874-3.5 4-6.9 6.4-10.1 2.441-3.2 5.1-6.1 8-8.7 2.982-2.7 6-4.7 9.2-6.1l2.614-8.4-12.856-3.9zm-180.883 84.5l2.328 12 29.547-5.7-2.328-12-29.547 5.7zm49.881-19.5c-.356-1.9-.556-3.8-.556-5.7.015-1.9.3-3.7.8-5.4.593-1.7 1.5-3.2 2.7-4.4 1.225-1.3 2.9-2.1 4.9-2.5 2.99-.5 5.6-.1 7.9 1.4 2.328 1.5 3.8 3.9 4.4 7.2.455 2.1.3 4.1-.3 5.9-.619 1.8-1.5 3.5-2.7 5.1-1.116 1.6-2.4 3.1-3.9 4.5-1.521 1.4-2.9 2.8-4.2 4.1-2.57 2.6-5 5.2-7.2 7.6-2.317 2.5-4.2 5.1-5.7 7.8-1.531 2.7-2.6 5.7-3.1 8.8-.619 3.2-.5 6.8.3 10.8l50.415-9.8-2.328-12-32.492 6.3c1.244-2.7 2.805-5.1 4.705-7.3 1.864-2.2 3.8-4.3 5.9-6.3 2.047-2 4.1-4 6.1-6 2.02-2.1 3.8-4.2 5.2-6.5 1.472-2.3 2.5-4.8 3.1-7.5.674-2.7.7-5.8 0-9.3-.672-3.3-1.9-6.2-3.7-8.6-1.79-2.4-3.9-4.4-6.5-5.8-2.479-1.4-5.3-2.3-8.3-2.7-3.03-.5-6.1-.4-9.3.2-4.084.8-7.6 2.2-10.5 4.3-2.896 2-5.1 4.5-6.8 7.4-1.558 2.9-2.6 6.2-2.9 9.7-.44 3.6-.2 7.4.7 11.3l13.356-2.6zm152.349 55.6l-1.221 7.7 19.027 3 1.221-7.7-19.027-3zm36.619 6.9c1.096.1 2.276.4 3.476.6 1.145.3 2.2.7 3.2 1.2.91.6 1.6 1.4 2.2 2.4.467.9.6 2.3.3 4-.318 2.1-1.3 3.7-2.9 4.7-1.557 1.1-3.4 1.4-5.4 1.1-1.291-.2-2.4-.6-3.3-1.2-.831-.7-1.5-1.4-2-2.3-.54-.9-.9-1.9-1-3-.212-1.1-.2-2.3-.1-3.5l-8.512-1.3c-.449 2.5-.488 4.9.012 7 .479 2.1 1.3 3.9 2.5 5.5 1.252 1.6 2.8 2.9 4.8 4 1.886 1 4.1 1.7 6.6 2.1 2.13.4 4.2.4 6.3.1 2.106-.4 4-1 5.7-2 1.723-1 3.2-2.3 4.4-4 1.161-1.6 1.9-3.6 2.3-5.9.409-2.6.1-4.8-1-6.9-1.15-2-2.9-3.5-5.2-4.4 2.14-.4 3.9-1.3 5.2-2.8 1.251-1.5 2.1-3.3 2.4-5.4.322-2 .2-3.8-.5-5.5-.633-1.6-1.6-3.1-2.8-4.4-1.267-1.3-2.7-2.3-4.4-3.1-1.706-.8-3.4-1.4-5.2-1.6-2.28-.4-4.4-.3-6.4.1-1.945.4-3.7 1.2-5.2 2.4-1.583 1.1-2.9 2.6-3.9 4.3-1.04 1.8-1.8 3.8-2.2 6l8.509 1.4c.318-2.3 1.191-4.1 2.591-5.4 1.376-1.3 3.2-1.8 5.5-1.4 1.631.2 3 1 4.1 2.2 1.113 1.2 1.5 2.7 1.2 4.6-.186 1.3-.7 2.3-1.4 2.9-.714.7-1.6 1.2-2.6 1.4-1.009.3-2.1.3-3.2.2-1.087 0-2.1-.2-3.1-.4l-.976 6.3zm55.826-4.3c.061-2.1-.149-3.9-.749-5.5-.56-1.7-1.4-3.1-2.5-4.3-1.092-1.3-2.4-2.3-4-3.1-1.534-.8-3.3-1.4-5.2-1.7-3.118-.5-5.9-.2-8.3.8-2.427 1.1-4.5 2.6-6.2 4.6-1.786 2-3.2 4.3-4.3 6.9-1.021 2.7-1.8 5.4-2.2 8.1-.452 2.8-.6 5.6-.6 8.4.112 2.8.6 5.4 1.6 7.8.965 2.3 2.4 4.3 4.4 6 2 1.7 4.7 2.8 8 3.3 2.303.4 4.5.3 6.5-.2 2.028-.5 3.8-1.4 5.4-2.6 1.641-1.3 3-2.8 4-4.7 1.06-1.8 1.8-3.9 2.1-6.1.305-1.8.3-3.6 0-5.4-.24-1.8-.9-3.5-1.8-5-1.071-1.6-2.4-3-4.1-4.1-1.698-1.1-3.5-1.8-5.4-2.1-2.132-.4-4.1-.3-5.9.2-1.716.5-3.3 1.6-4.9 3.1l-.058-.1c.236-1.2.658-2.6 1.158-4.1.55-1.5 1.2-2.9 2.1-4.2.844-1.2 1.9-2.3 3.1-3 1.23-.8 2.6-1.1 4.2-.8 1.604.2 2.8 1 3.7 2.2.884 1.3 1.4 2.7 1.4 4.2l8.549 1.4zm-16.553 7.5c1.138.2 2.104.6 2.904 1.2.771.6 1.4 1.4 1.8 2.2.425.9.7 1.9.8 2.9.13 1 .1 2.1-.1 3.1-.122 1-.4 2-.9 2.9-.423 1-1 1.7-1.7 2.4-.723.7-1.5 1.2-2.4 1.5-.916.3-1.9.4-3 .2-1.145-.1-2.1-.5-2.9-1.1-.842-.6-1.5-1.4-2-2.2-.467-.9-.8-1.9-.9-2.9-.209-1.1-.2-2.1 0-3.1.125-1.1.4-2.1.9-3.1.442-.9 1-1.7 1.7-2.4.743-.6 1.6-1.1 2.6-1.4.938-.3 2-.4 3.2-.2zm91.382-88.6l1.43 4.1 10.246-3.5-1.43-4.1-10.246 3.5zm29.307 2.6l-8.204-23.8-3.846 1.3c.176 1 .165 1.8-.035 2.6-.251.8-.6 1.4-1.1 2-.499.6-1.1 1.1-1.8 1.5-.776.4-1.6.8-2.4 1.1l1.241 3.6 5.991-2.1 5.321 15.5 4.833-1.7zm18.925-6.5l-8.204-23.8-3.846 1.3c.176 1 .139 1.8-.061 2.6-.225.7-.6 1.4-1.1 2-.473.6-1.1 1.1-1.8 1.5-.751.4-1.5.8-2.4 1l1.266 3.7 5.991-2.1 5.321 15.5 4.833-1.7zm14.304-11.1l1.899 5.5 4.595-1.6-1.899-5.5 3.166-1.1-1.371-3.9-3.166 1-4.934-14.3-4.323 1.5-5.566 17.5 1.524 4.4 10.075-3.5zm-4.219-12.2l2.848 8.2-6.263 2.2 3.313-10.4h.102zm36.659 115.7l1.225 17.5 43.238-3-1.225-17.6-43.238 3.1zm89.607-6.7c-2.586.1-4.862-.2-6.962-1.2-2.017-1-3.7-2.3-5.1-4-1.359-1.7-2.4-3.6-3.2-5.8-.794-2.2-1.3-4.5-1.4-6.9-.195-2.3 0-4.6.5-6.8.515-2.3 1.4-4.3 2.6-6.1 1.224-1.9 2.8-3.4 4.6-4.6 1.838-1.1 4-1.8 6.4-2 2.536-.2 4.9.2 7 1.1 2.041.9 3.8 2.2 5.4 3.9 1.464 1.7 2.7 3.6 3.5 5.8.909 2.2 1.4 4.5 1.6 6.8.162 2.4 0 4.8-.5 7.1-.533 2.3-1.4 4.4-2.6 6.2-1.24 1.8-2.8 3.3-4.8 4.5-1.902 1.1-4.3 1.8-7 2zm64.054-29.5c-.161-2.3.085-4.3.785-6.1.708-1.8 1.7-3.3 3.1-4.6 1.345-1.2 2.9-2.2 4.8-3 1.783-.7 3.7-1.2 5.7-1.3 3.172-.2 5.8.1 7.8.9 2.027.8 3.6 1.9 4.8 3.3 1.247 1.3 2.1 2.8 2.6 4.3.482 1.6.8 3 .9 4.4.27 4.3-.9 7.7-3.7 10.1-2.668 2.5-6.2 3.8-10.5 4.2-4.108.2-7.8-.6-11-2.7-3.222-2-5-5.2-5.3-9.5zm.695 43c-.362-5.2 1.09-9.3 4.39-12.2 3.21-3 7.3-4.7 12.3-5 2.402-.2 4.7 0 6.8.7 2.081.6 4 1.6 5.7 2.9 1.638 1.3 3 2.9 4 4.8 1.096 1.9 1.7 4.1 1.9 6.5.145 2.5-.1 4.8-.8 7-.754 2.1-1.8 4-3.3 5.6-1.503 1.6-3.2 2.9-5.2 3.8-2.046 1-4.3 1.6-6.8 1.7-2.376.2-4.7-.1-7-.7-2.222-.7-4.2-1.7-5.9-3.1-1.661-1.3-3.1-3-4.2-5.1-1.066-2-1.7-4.3-1.9-6.9zm-492.773-126.7l-2.568 8.4 20.725 6.4 2.568-8.4-20.725-6.4zm76.611 16.2c.393-1.3.951-2.6 1.551-3.8.669-1.2 1.5-2.3 2.4-3.2.912-.9 2-1.5 3.2-1.9 1.151-.4 2.5-.3 3.9.1 2.092.7 3.6 1.8 4.6 3.6.933 1.7 1.1 3.7.3 6.1-.412 1.4-1.1 2.6-2.2 3.6-.978.9-2.1 1.7-3.4 2.3-1.255.6-2.6 1.1-4 1.5-1.451.4-2.8.8-4.1 1.2-2.485.8-4.9 1.6-7.2 2.4-2.236.9-4.3 1.9-6.2 3.1-1.864 1.2-3.5 2.7-5 4.5-1.389 1.8-2.5 4.1-3.4 6.9l35.401 10.9 2.568-8.4-22.791-7c1.699-1.3 3.522-2.3 5.422-3.1 1.975-.7 3.9-1.4 5.9-2 2.001-.6 4-1.1 5.9-1.7 2.008-.7 3.8-1.4 5.5-2.4 1.739-1 3.2-2.2 4.6-3.7 1.273-1.5 2.3-3.5 3-5.9.761-2.3 1-4.6.6-6.7-.28-2.2-1-4.2-2.1-5.9-1.145-1.8-2.6-3.3-4.4-4.6-1.771-1.3-3.8-2.3-6-2.9-2.861-.9-5.6-1.2-8.1-.9-2.527.3-4.8 1.1-6.8 2.4-2.014 1.4-3.7 3.1-5.2 5.2-1.462 2.2-2.6 4.6-3.3 7.4l9.349 2.9z" fill="#D66868"/></svg>