<svg xmlns="http://www.w3.org/2000/svg" width="100px" viewBox="0 0 219 109"><g fill="none"><path d="M53.5 106c27.9 0 50.5-22.6 50.5-50.5s-22.6-50.5-50.5-50.5-50.5 22.6-50.5 50.5 22.6 50.5 50.5 50.5z" stroke="#9012FE" stroke-width="6" fill-opacity=".5" fill="#9013FE"/><path d="M59.1 30.1v19.8h19.8v11.2h-19.8v19.8h-11.2v-19.8h-19.8v-11.2h19.8v-19.8h11.2z" fill="#9012FE"/><path d="M165.5 104c27.9 0 50.5-22.6 50.5-50.5s-22.6-50.5-50.5-50.5-50.5 22.6-50.5 50.5 22.6 50.5 50.5 50.5z" stroke="#9012FE" stroke-width="6" fill-opacity=".5" fill="#9013FE"/><path d="M171.1 28.1v19.8h19.8v11.2h-19.8v19.8h-11.2v-19.8h-19.8v-11.2h19.8v-19.8h11.2z" fill="#9012FE"/></g></svg>