<svg xmlns="http://www.w3.org/2000/svg" viewBox="0 0 900 250"><circle stroke="#303BA3" stroke-width="6" fill-opacity=".5" fill="#313CA3" cx="806.5" cy="184.5" r="50.5"/><path d="M792.143 185.8h29" stroke="#303BA3" stroke-width="13" stroke-linecap="square"/><circle stroke="#303BA3" stroke-width="6" fill-opacity=".5" fill="#313CA3" cx="685.5" cy="184.5" r="50.5"/><path d="M671.143 185.8h29" stroke="#303BA3" stroke-width="13" stroke-linecap="square"/><circle stroke="#303BA3" stroke-width="6" fill-opacity=".5" fill="#313CA3" cx="564.5" cy="184.5" r="50.5"/><path d="M550.143 185.8h29" stroke="#303BA3" stroke-width="13" stroke-linecap="square"/><circle stroke="#303BA3" stroke-width="6" fill-opacity=".5" fill="#313CA3" cx="443.5" cy="184.5" r="50.5"/><path d="M429.143 185.8h29" stroke="#303BA3" stroke-width="13" stroke-linecap="square"/><circle stroke="#303BA3" stroke-width="6" fill-opacity=".5" fill="#313CA3" cx="322.5" cy="184.5" r="50.5"/><path d="M308.143 185.8h29" stroke="#303BA3" stroke-width="13" stroke-linecap="square"/><circle stroke="#303BA3" stroke-width="6" fill-opacity=".5" fill="#313CA3" cx="201.5" cy="184.5" r="50.5"/><path d="M187.143 185.8h29" stroke="#303BA3" stroke-width="13" stroke-linecap="square"/><circle stroke="#303BA3" stroke-width="6" fill-opacity=".5" fill="#313CA3" cx="80.5" cy="184.5" r="50.5"/><path d="M66.143 185.8h29" stroke="#303BA3" stroke-width="13" stroke-linecap="square"/><path d="M809.5 119c27.89 0 50.5-22.6 50.5-50.5s-22.6-50.5-50.5-50.5c-27.89 0-50.5 22.6-50.5 50.5s22.6 50.5 50.5 50.5z" stroke="#9012FE" stroke-width="6" fill-opacity=".5" fill="#9013FE"/><path d="M815.145 43.1v19.8h19.782v11.2h-19.782v19.8h-11.289v-19.8h-19.782v-11.2h19.782v-19.8h11.289z" fill="#9012FE"/><path d="M688.5 119c27.89 0 50.5-22.6 50.5-50.5s-22.6-50.5-50.5-50.5c-27.89 0-50.5 22.6-50.5 50.5s22.6 50.5 50.5 50.5z" stroke="#9012FE" stroke-width="6" fill-opacity=".5" fill="#9013FE"/><path d="M694.145 43.1v19.8h19.782v11.2h-19.782v19.8h-11.289v-19.8h-19.782v-11.2h19.782v-19.8h11.289z" fill="#9012FE"/><path d="M567.5 119c27.89 0 50.5-22.6 50.5-50.5s-22.6-50.5-50.5-50.5c-27.89 0-50.5 22.6-50.5 50.5s22.6 50.5 50.5 50.5z" stroke="#9012FE" stroke-width="6" fill-opacity=".5" fill="#9013FE"/><path d="M573.145 43.1v19.8h19.782v11.2h-19.782v19.8h-11.289v-19.8h-19.782v-11.2h19.782v-19.8h11.289z" fill="#9012FE"/><path d="M446.5 119c27.89 0 50.5-22.6 50.5-50.5s-22.6-50.5-50.5-50.5c-27.89 0-50.5 22.6-50.5 50.5s22.6 50.5 50.5 50.5z" stroke="#9012FE" stroke-width="6" fill-opacity=".5" fill="#9013FE"/><path d="M452.145 43.1v19.8h19.782v11.2h-19.782v19.8h-11.289v-19.8h-19.782v-11.2h19.782v-19.8h11.289z" fill="#9012FE"/><path d="M325.5 119c27.89 0 50.5-22.6 50.5-50.5s-22.6-50.5-50.5-50.5c-27.89 0-50.5 22.6-50.5 50.5s22.6 50.5 50.5 50.5z" stroke="#9012FE" stroke-width="6" fill-opacity=".5" fill="#9013FE"/><path d="M331.145 43.1v19.8h19.782v11.2h-19.782v19.8h-11.289v-19.8h-19.782v-11.2h19.782v-19.8h11.289z" fill="#9012FE"/><path d="M204.5 119c27.89 0 50.5-22.6 50.5-50.5s-22.6-50.5-50.5-50.5c-27.89 0-50.5 22.6-50.5 50.5s22.6 50.5 50.5 50.5z" stroke="#9012FE" stroke-width="6" fill-opacity=".5" fill="#9013FE"/><path d="M210.145 43.1v19.8h19.782v11.2h-19.782v19.8h-11.289v-19.8h-19.782v-11.2h19.782v-19.8h11.289z" fill="#9012FE"/><path d="M83.5 119c27.89 0 50.5-22.6 50.5-50.5s-22.6-50.5-50.5-50.5c-27.89 0-50.5 22.6-50.5 50.5s22.6 50.5 50.5 50.5z" stroke="#9012FE" stroke-width="6" fill-opacity=".5" fill="#9013FE"/><path d="M89.145 43.1v19.8h19.782v11.2h-19.782v19.8h-11.289v-19.8h-19.782v-11.2h19.782v-19.8h11.289z" fill="#9012FE"/></svg>