<svg xmlns="http://www.w3.org/2000/svg" viewBox="0 0 550 380"><g transform="translate(-26 -59)" fill="none"><circle fill="#417505" cx="538.5" cy="286.5" r="37.5"/><circle fill="#4990E2" cx="443.5" cy="286.5" r="37.5"/><circle fill="#4990E2" cx="348.5" cy="286.5" r="37.5"/><circle fill="#4990E2" cx="253.5" cy="286.5" r="37.5"/><path d="M253.5 438c20.711 0 37.5-16.8 37.5-37.5s-16.8-37.5-37.5-37.5c-20.711 0-37.5 16.8-37.5 37.5s16.8 37.5 37.5 37.5z" stroke="#303BA3" stroke-width="3"/><text font-family="Courier" font-size="27" fill="#000"><tspan x="311" y="408">= 10 people</tspan></text><circle fill="#D0011B" cx="158.5" cy="286.5" r="37.5"/><circle fill="#417505" cx="63.5" cy="286.5" r="37.5"/><circle fill="#4990E2" cx="538.5" cy="191.5" r="37.5"/><circle fill="#F6A623" cx="443.5" cy="191.5" r="37.5"/><circle fill="#4990E2" cx="348.5" cy="191.5" r="37.5"/><circle fill="#D0011B" cx="253.5" cy="191.5" r="37.5"/><circle fill="#4990E2" cx="158.5" cy="191.5" r="37.5"/><circle fill="#417505" cx="63.5" cy="191.5" r="37.5"/><circle fill="#4990E2" cx="538.5" cy="96.5" r="37.5"/><circle fill="#417505" cx="443.5" cy="96.5" r="37.5"/><circle fill="#417505" cx="348.5" cy="96.5" r="37.5"/><circle fill="#417505" cx="253.5" cy="96.5" r="37.5"/><circle fill="#D0011B" cx="158.5" cy="96.5" r="37.5"/><circle fill="#4990E2" cx="63.5" cy="96.5" r="37.5"/></g></svg>