<svg xmlns="http://www.w3.org/2000/svg" viewBox="0 0 895 118"><g fill="none"><circle fill="#417505" cx="882.5" cy="102.5" r="12.5"/><circle fill="#D0011B" cx="852.5" cy="102.5" r="12.5"/><circle fill="#417505" cx="822.5" cy="102.5" r="12.5"/><circle fill="#417505" cx="792.5" cy="102.5" r="12.5"/><circle fill="#F6A623" cx="762.5" cy="102.5" r="12.5"/><circle fill="#4990E2" cx="732.5" cy="102.5" r="12.5"/><circle fill="#417505" cx="702.5" cy="102.5" r="12.5"/><circle fill="#D0011B" cx="672.5" cy="102.5" r="12.5"/><circle fill="#4990E2" cx="642.5" cy="102.5" r="12.5"/><circle fill="#4990E2" cx="612.5" cy="102.5" r="12.5"/><circle fill="#417505" cx="582.5" cy="102.5" r="12.5"/><circle fill="#D0011B" cx="552.5" cy="102.5" r="12.5"/><circle fill="#417505" cx="522.5" cy="102.5" r="12.5"/><circle fill="#F6A623" cx="492.5" cy="102.5" r="12.5"/><circle fill="#4990E2" cx="462.5" cy="102.5" r="12.5"/><circle fill="#417505" cx="432.5" cy="102.5" r="12.5"/><circle fill="#417505" cx="402.5" cy="102.5" r="12.5"/><circle fill="#4990E2" cx="372.5" cy="102.5" r="12.5"/><circle fill="#417505" cx="342.5" cy="102.5" r="12.5"/><circle fill="#4990E2" cx="312.5" cy="102.5" r="12.5"/><circle fill="#D0011B" cx="282.5" cy="102.5" r="12.5"/><circle fill="#417505" cx="252.5" cy="102.5" r="12.5"/><circle fill="#417505" cx="222.5" cy="102.5" r="12.5"/><circle fill="#4990E2" cx="192.5" cy="102.5" r="12.5"/><circle fill="#F6A623" cx="162.5" cy="102.5" r="12.5"/><circle fill="#D0011B" cx="132.5" cy="102.5" r="12.5"/><circle fill="#4990E2" cx="102.5" cy="102.5" r="12.5"/><circle fill="#4990E2" cx="72.5" cy="102.5" r="12.5"/><circle fill="#4990E2" cx="42.5" cy="102.5" r="12.5"/><circle fill="#417505" cx="12.5" cy="102.5" r="12.5"/><circle fill="#D0011B" cx="882.5" cy="72.5" r="12.5"/><circle fill="#4990E2" cx="852.5" cy="72.5" r="12.5"/><circle fill="#D0011B" cx="822.5" cy="72.5" r="12.5"/><circle fill="#4990E2" cx="792.5" cy="72.5" r="12.5"/><circle fill="#4990E2" cx="762.5" cy="72.5" r="12.5"/><circle fill="#D0011B" cx="732.5" cy="72.5" r="12.5"/><circle fill="#4990E2" cx="702.5" cy="72.5" r="12.5"/><circle fill="#4990E2" cx="672.5" cy="72.5" r="12.5"/><circle fill="#417505" cx="642.5" cy="72.5" r="12.5"/><circle fill="#417505" cx="612.5" cy="72.5" r="12.5"/><circle fill="#F6A623" cx="582.5" cy="72.5" r="12.5"/><circle fill="#4990E2" cx="552.5" cy="72.5" r="12.5"/><circle fill="#4990E2" cx="522.5" cy="72.5" r="12.5"/><circle fill="#417505" cx="492.5" cy="72.5" r="12.5"/><circle fill="#4990E2" cx="462.5" cy="72.5" r="12.5"/><circle fill="#4990E2" cx="432.5" cy="72.5" r="12.5"/><circle fill="#417505" cx="402.5" cy="72.5" r="12.5"/><circle fill="#4990E2" cx="372.5" cy="72.5" r="12.5"/><circle fill="#4990E2" cx="342.5" cy="72.5" r="12.5"/><circle fill="#4990E2" cx="312.5" cy="72.5" r="12.5"/><circle fill="#417505" cx="282.5" cy="72.5" r="12.5"/><circle fill="#4990E2" cx="252.5" cy="72.5" r="12.5"/><circle fill="#4990E2" cx="222.5" cy="72.5" r="12.5"/><circle fill="#D0011B" cx="192.5" cy="72.5" r="12.5"/><circle fill="#4990E2" cx="162.5" cy="72.5" r="12.5"/><circle fill="#D0011B" cx="132.5" cy="72.5" r="12.5"/><circle fill="#4990E2" cx="102.5" cy="72.5" r="12.5"/><circle fill="#D0011B" cx="72.5" cy="72.5" r="12.5"/><circle fill="#417505" cx="42.5" cy="72.5" r="12.5"/><circle fill="#D0011B" cx="12.5" cy="72.5" r="12.5"/><circle fill="#4990E2" cx="882.5" cy="42.5" r="12.5"/><circle fill="#417505" cx="852.5" cy="42.5" r="12.5"/><circle fill="#D0011B" cx="822.5" cy="42.5" r="12.5"/><circle fill="#F6A623" cx="792.5" cy="42.5" r="12.5"/><circle fill="#4990E2" cx="762.5" cy="42.5" r="12.5"/><circle fill="#D0011B" cx="732.5" cy="42.5" r="12.5"/><circle fill="#D0011B" cx="702.5" cy="42.5" r="12.5"/><circle fill="#D0011B" cx="672.5" cy="42.5" r="12.5"/><circle fill="#417505" cx="642.5" cy="42.5" r="12.5"/><circle fill="#4990E2" cx="612.5" cy="42.5" r="12.5"/><circle fill="#417505" cx="582.5" cy="42.5" r="12.5"/><circle fill="#D0011B" cx="552.5" cy="42.5" r="12.5"/><circle fill="#4990E2" cx="522.5" cy="42.5" r="12.5"/><circle fill="#D0011B" cx="492.5" cy="42.5" r="12.5"/><circle fill="#D0011B" cx="462.5" cy="42.5" r="12.5"/><circle fill="#F6A623" cx="432.5" cy="42.5" r="12.5"/><circle fill="#4990E2" cx="372.5" cy="42.5" r="12.5"/><circle fill="#4990E2" cx="342.5" cy="42.5" r="12.5"/><circle fill="#D0011B" cx="312.5" cy="42.5" r="12.5"/><circle fill="#417505" cx="282.5" cy="42.5" r="12.5"/><circle fill="#D0011B" cx="222.5" cy="42.5" r="12.5"/><circle fill="#4990E2" cx="192.5" cy="42.5" r="12.5"/><circle fill="#4990E2" cx="402.5" cy="42.5" r="12.5"/><circle fill="#D0011B" cx="252.5" cy="42.5" r="12.5"/><circle fill="#D0011B" cx="162.5" cy="42.5" r="12.5"/><circle fill="#4990E2" cx="732.5" cy="12.5" r="12.5"/><circle fill="#D0011B" cx="672.5" cy="12.5" r="12.5"/><circle fill="#4990E2" cx="522.5" cy="12.5" r="12.5"/><circle fill="#F6A623" cx="102.5" cy="12.5" r="12.5"/><circle fill="#4990E2" cx="132.5" cy="42.5" r="12.5"/><circle fill="#4990E2" cx="102.5" cy="42.5" r="12.5"/><circle fill="#4990E2" cx="72.5" cy="42.5" r="12.5"/><circle fill="#417505" cx="42.5" cy="42.5" r="12.5"/><circle fill="#D0011B" cx="12.5" cy="42.5" r="12.5"/><circle fill="#417505" cx="882.5" cy="12.5" r="12.5"/><circle fill="#4990E2" cx="852.5" cy="12.5" r="12.5"/><circle fill="#F6A623" cx="822.5" cy="12.5" r="12.5"/><circle fill="#4990E2" cx="792.5" cy="12.5" r="12.5"/><circle fill="#F6A623" cx="762.5" cy="12.5" r="12.5"/><circle fill="#4990E2" cx="702.5" cy="12.5" r="12.5"/><circle fill="#417505" cx="642.5" cy="12.5" r="12.5"/><circle fill="#4990E2" cx="612.5" cy="12.5" r="12.5"/><circle fill="#4990E2" cx="582.5" cy="12.5" r="12.5"/><circle fill="#4990E2" cx="552.5" cy="12.5" r="12.5"/><circle fill="#D0011B" cx="492.5" cy="12.5" r="12.5"/><circle fill="#4990E2" cx="462.5" cy="12.5" r="12.5"/><circle fill="#417505" cx="432.5" cy="12.5" r="12.5"/><circle fill="#D0011B" cx="402.5" cy="12.5" r="12.5"/><circle fill="#4990E2" cx="372.5" cy="12.5" r="12.5"/><circle fill="#417505" cx="342.5" cy="12.5" r="12.5"/><circle fill="#F6A623" cx="312.5" cy="12.5" r="12.5"/><circle fill="#4990E2" cx="282.5" cy="12.5" r="12.5"/><circle fill="#D0011B" cx="252.5" cy="12.5" r="12.5"/><circle fill="#4990E2" cx="222.5" cy="12.5" r="12.5"/><circle fill="#D0011B" cx="192.5" cy="12.5" r="12.5"/><circle fill="#417505" cx="162.5" cy="12.5" r="12.5"/><circle fill="#D0011B" cx="132.5" cy="12.5" r="12.5"/><circle fill="#D0011B" cx="72.5" cy="12.5" r="12.5"/><circle fill="#4990E2" cx="42.5" cy="12.5" r="12.5"/><circle fill="#4990E2" cx="12.5" cy="12.5" r="12.5"/></g></svg>