<svg xmlns="http://www.w3.org/2000/svg" viewBox="0 0 1122.6667 793.33331"><defs><clipPath><path d="M14.51 19.512v557.24H828.94V19.51H14.51z"/></clipPath><clipPath><path d="M13 18h816v559H13V18z"/></clipPath></defs><g clip-path="url(#clipPath18)" transform="matrix(1.333 0 0 -1.333 0 793.333)"><g clip-path="url(#clipPath24)"><path d="M228.834 362.43L426.868 89.81m0 0l198.034 272.62L304.276 466.16v-336.06l320.626 103.733m0 0L426.868 506.453 228.834 233.835m0 0l319.77-103.733v336.06L228.833 362.43" fill="none" stroke-width="1.206576" stroke="#000"/><text transform="matrix(3.024 0 0 -3.024 364.017 58.237)" style="-inkscape-font-specification:CMR10" font-family="CMR10" font-size="9.963"><tspan y="0" x="0 7.1949897 12.73021 17.71151 21.613861 24.381472 29.36277 33.237225 37.111683">Charlotte</tspan></text><text transform="matrix(3.024 0 0 -3.024 635.478 355.025)" style="-inkscape-font-specification:CMR10" font-family="CMR10" font-size="9.963"><tspan y="0" x="0 7.0565095 11.483889 17.01911 20.063681 25.044981 33.346813 36.114426">Benjamin</tspan></text><text transform="matrix(3.024 0 0 -3.024 198.114 455.651)" style="-inkscape-font-specification:CMR10" font-family="CMR10" font-size="9.963"><tspan y="0" x="0 7.1949897 12.73021 17.71151 21.613861 24.381472 27.149082">Charlie</tspan></text><text transform="matrix(3.024 0 0 -3.024 214.852 119.628)" style="-inkscape-font-specification:CMR10" font-family="CMR10" font-size="9.963"><tspan y="0" x="0 7.1949897 9.9625998 14.9439 17.71151 21.613861">Claire</tspan></text><text transform="matrix(3.024 0 0 -3.024 635.478 223.351)" style="-inkscape-font-specification:CMR10" font-family="CMR10" font-size="9.963"><tspan y="0" x="0 5.5352206 10.516521 14.418871 19.400171">Sarah</tspan></text><text transform="matrix(3.024 0 0 -3.024 393.138 517.042)" style="-inkscape-font-specification:CMR10" font-family="CMR10" font-size="9.963"><tspan y="0" x="0 6.226625 8.994235 13.975535">Liam</tspan></text><text transform="matrix(3.024 0 0 -3.024 158.751 223.517)" style="-inkscape-font-specification:CMR10" font-family="CMR10" font-size="9.963"><tspan y="0" x="0 6.368094 11.349394">Tom</tspan></text><text transform="matrix(3.024 0 0 -3.024 559.189 122.558)" style="-inkscape-font-specification:CMR10" font-family="CMR10" font-size="9.963"><tspan y="0" x="0 9.1327152 11.900326 16.048752 21.583973 26.011353 28.778963 33.760262 39.295483 44.276783 48.704163 51.471771">Michelangelo</tspan></text><text transform="matrix(3.024 0 0 -3.024 559.189 458.582)" style="-inkscape-font-specification:CMR10" font-family="CMR10" font-size="9.963"><tspan y="0" x="0 7.1949897 12.73021 16.632561 19.400171 23.32942 27.203876 32.185177 37.720398 43.255615 47.682995">Christopher</tspan></text><text transform="matrix(3.024 0 0 -3.024 57.153 352.098)" style="-inkscape-font-specification:CMR10" fill="#00f" font-family="CMR10" font-size="9.963"><tspan y="0" x="0 9.1327152 11.900326 15.829576 19.704031 24.131411 31.351305 40.48402 45.465321 49.367672">MisterMort</tspan></text></g></g></svg>