<svg viewBox="0 0 155 117" xmlns="http://www.w3.org/2000/svg"><g fill="none" fill-rule="evenodd"><path d="M5.12 5.47V40.9h35.44V5.47H5.12zM40.56 40.9v35.44h35.43V40.9H40.56zM40.56 76.34v35.43h35.43V76.34H40.56zM75.99 5.47V40.9h35.43V5.47H75.99zM111.42 40.9v35.44h35.44V40.9h-35.44z" fill="#00f"/><path d="M5.12 5.47v106.3h141.74V5.47H5.12zM40.56 5.47v106.3M75.99 5.47v106.3M111.42 5.47v106.3M5.12 40.9h141.74M5.12 76.34h141.74" stroke="#000"/><path d="M5.12 5.47L40.56 40.9M40.56 5.47L75.99 40.9M75.99 5.47l35.43 35.43M111.42 5.47l35.44 35.43M5.12 40.9l35.44 35.44M40.56 40.9l35.43 35.44M75.99 40.9l35.43 35.44M111.42 40.9l35.44 35.44M5.12 76.34l35.44 35.43M40.56 76.34l35.43 35.43M75.99 76.34l35.43 35.43M111.42 76.34l35.44 35.43" stroke="#000" stroke-width=".5"/></g></svg>