<svg viewBox="0 0 150 112" xmlns="http://www.w3.org/2000/svg"><g fill="none" fill-rule="evenodd"><path d="M4.12 1.49v35.43h35.44V1.49H4.12zm35.44 35.43v35.43h35.43V36.92H39.56zm0 35.43v35.44h35.43V72.35H39.56zM74.99 1.49v35.43h35.43V1.49H74.99zm35.43 35.43v35.43h35.44V36.92h-35.44z" fill="#00f"/><path d="M4.12 1.49v106.3h141.74V1.49H4.12zm0 0h141.74M4.12 36.92h141.74M4.12 72.35h141.74M4.12 107.78h141.74M4.12 1.49v106.3M39.56 1.49v106.3M74.99 1.49v106.3m35.43-106.3v106.3m35.43-106.3v106.3" stroke="#000"/></g></svg>