<svg viewBox="0 0 144 109" xmlns="http://www.w3.org/2000/svg"><g fill="none" fill-rule="evenodd"><path d="M1.124 1.453v35.433h35.433V1.452H1.124zM36.557 36.886V72.32H71.99V36.886H36.558zM36.557 72.32v35.433H71.99V72.32H36.558zM71.99 1.453v35.433h35.434V1.452H71.99zM107.424 36.886V72.32h35.434V36.886h-35.434z" fill="#00f"/><path d="M1.124 1.453v106.3h141.734V1.453H1.124zM1.124 1.453h141.734M1.124 36.886h141.734M1.124 72.32h141.734M1.124 107.74h141.734M1.124 1.454v106.3m35.433-106.3v106.3M71.99 1.454v106.3m35.434-106.3v106.3m35.42-106.3v106.3" stroke="#000" stroke-width=".996"/><path d="M1.124 1.453l35.433 35.433M36.557 1.453L71.99 36.886M71.99 1.453l35.434 35.433M107.424 1.453l35.434 35.433M1.124 36.886L36.557 72.32M36.557 36.886L71.99 72.32M71.99 36.886l35.434 35.434M107.424 36.886l35.434 35.434M1.124 72.32l35.433 35.433M36.557 72.32l35.434 35.433M71.99 72.32l35.434 35.433M107.424 72.32l35.434 35.433M142.858 1.453l-35.434 35.433M36.557 1.453L1.124 36.886M71.99 1.453L36.558 36.886M107.424 1.453L71.99 36.886M142.858 36.886L107.424 72.32M36.557 36.886L1.124 72.32M71.99 36.886L36.558 72.32M107.424 36.886L71.99 72.32M142.858 72.32l-35.434 35.433M36.557 72.32L1.124 107.753M71.99 72.32l-35.433 35.433M107.424 72.32L71.99 107.753" stroke="#000" stroke-width=".5"/></g></svg>