<?xml version="1.0" encoding="UTF-8" standalone="no"?>
<svg viewBox="0 0 353 307" version="1.1" xmlns="http://www.w3.org/2000/svg" xmlns:xlink="http://www.w3.org/1999/xlink">
    <title>star</title>
    <g id="Page-1" stroke="none" stroke-width="1" fill="none" fill-rule="evenodd">
        <g id="star" transform="translate(-24.000000, -9.000000)">
            <g transform="translate(26.000000, 11.000000)">
                <path d="M87.2516097,303 L261.74839,303 L349,151.496773 L261.74839,0 L87.2516097,0 L0,151.496773 L87.2516097,303 Z" id="Stroke-3" stroke="#D2B4B4" stroke-width="3" stroke-linecap="round" stroke-linejoin="round"></path>
                <path d="M87.6709633,151.496773 L44,75.7483863 L131.335482,75.7483863 L175,0 L218.670963,75.7483863 L306,75.7483863 L262.335482,151.496773 L306,227.251614 L218.670963,227.251614 L175,303 L131.335482,227.251614 L44,227.251614 L87.6709633,151.496773 Z" id="Fill-6" fill="#DC143C"></path>
                <path d="M175,152 L350,152" id="Stroke-20" stroke="#808080" stroke-width="0.5" stroke-linejoin="round" stroke-dasharray="5.5,4"></path>
                <path d="M175,151 L88,0" id="Stroke-19" stroke="#808080" stroke-width="0.5" stroke-linejoin="round" stroke-dasharray="5.5,4"></path>
                <path d="M175,152 L88,303" id="Stroke-21" stroke="#808080" stroke-width="0.5" stroke-linejoin="round" stroke-dasharray="5.5,4"></path>
                <path d="M175,151 L262,0" id="Stroke-17" stroke="#000000" stroke-width="2" stroke-linecap="round" stroke-linejoin="round"></path>
                <path d="M175,152 L262,303" id="Stroke-18" stroke="#000000" stroke-width="2" stroke-linecap="round" stroke-linejoin="round"></path>
                <path d="M175,152 L0,152" id="Stroke-16" stroke="#000000" stroke-width="2" stroke-linecap="round" stroke-linejoin="round"></path>
            </g>
        </g>
    </g>
</svg>