<?xml version="1.0" encoding="UTF-8" standalone="no"?>
<svg viewBox="0 0 140 165" version="1.1" xmlns="http://www.w3.org/2000/svg" xmlns:xlink="http://www.w3.org/1999/xlink">
    <title>step 4</title>
    <g id="Page-1" stroke="none" stroke-width="1" fill="none" fill-rule="evenodd">
        <g id="step-4" transform="translate(-17.000000, -23.000000)">
            <path d="M68.3934564,169.975915 L119.092375,140.701518 L68.3934564,111.43194 L68.3934564,169.975915 Z" id="Fill-3"></path>
            <path d="M119.092375,140.701518 L119.092375,82.1623616 L68.3934564,111.43194 L119.092375,140.701518 Z" id="Fill-4"></path>
            <path d="M68.3934564,169.975915 L17.6945376,140.701518 L68.3934564,111.43194 L68.3934564,169.975915 Z" id="Fill-5" fill="#0000FF"></path>
            <path d="M17.6945376,140.701518 L17.6945376,82.1623616 L68.3934564,111.43194 L17.6945376,140.701518 Z" id="Fill-6" fill="#0000FF"></path>
            <path d="M68.3934564,52.8879645 L17.6945376,82.1623616 L68.3934564,111.43194 L68.3934564,52.8879645 Z" id="Fill-7" fill="#00FF00"></path>
            <path d="M68.3934564,111.43194 L119.092375,82.1623616 L68.3934564,52.8879645 L68.3934564,111.43194 Z" id="Fill-8" fill="#00FF00"></path>
            <path d="M17.6945376,82.1623616 L17.6945376,23.6183863 L68.3934564,52.8879645 L17.6945376,82.1623616 Z" id="Fill-9" fill="#00FF00"></path>
            <path d="M68.3934564,111.43194 L68.3934564,169.975915" id="Stroke-10" stroke="#000000" stroke-linecap="round" stroke-linejoin="round"></path>
            <path d="M119.092375,140.701518 L68.3934564,111.43194" id="Stroke-11" stroke="#000000" stroke-linecap="round" stroke-linejoin="round"></path>
            <path d="M68.3934564,169.975915 L119.092375,140.701518" id="Stroke-12" stroke="#000000" stroke-linecap="round" stroke-linejoin="round"></path>
            <path d="M68.3934564,111.43194 L119.092375,140.701518" id="Stroke-13" stroke="#000000" stroke-linecap="round" stroke-linejoin="round"></path>
            <path d="M119.092375,82.1623616 L68.3934564,111.43194" id="Stroke-14" stroke="#000000" stroke-linecap="round" stroke-linejoin="round"></path>
            <path d="M119.092375,140.701518 L119.092375,82.1623616" id="Stroke-15" stroke="#000000" stroke-linecap="round" stroke-linejoin="round"></path>
            <path d="M68.3934564,111.43194 L68.3934564,169.975915" id="Stroke-16" stroke="#000000" stroke-linecap="round" stroke-linejoin="round"></path>
            <path d="M17.6945376,140.701518 L68.3934564,111.43194" id="Stroke-17" stroke="#000000" stroke-linecap="round" stroke-linejoin="round"></path>
            <path d="M68.3934564,169.975915 L17.6945376,140.701518" id="Stroke-18" stroke="#000000" stroke-linecap="round" stroke-linejoin="round"></path>
            <path d="M68.3934564,111.43194 L17.6945376,140.701518" id="Stroke-19" stroke="#000000" stroke-linecap="round" stroke-linejoin="round"></path>
            <path d="M17.6945376,82.1623616 L68.3934564,111.43194" id="Stroke-20" stroke="#000000" stroke-linecap="round" stroke-linejoin="round"></path>
            <path d="M17.6945376,140.701518 L17.6945376,82.1623616" id="Stroke-21" stroke="#000000" stroke-linecap="round" stroke-linejoin="round"></path>
            <path d="M68.3934564,111.43194 L68.3934564,52.8879645" id="Stroke-22" stroke="#000000" stroke-linecap="round" stroke-linejoin="round"></path>
            <path d="M17.6945376,82.1623616 L68.3934564,111.43194" id="Stroke-23" stroke="#000000" stroke-linecap="round" stroke-linejoin="round"></path>
            <path d="M68.3934564,52.8879645 L17.6945376,82.1623616" id="Stroke-24" stroke="#000000" stroke-linecap="round" stroke-linejoin="round"></path>
            <path d="M68.3934564,52.8879645 L68.3934564,111.43194" id="Stroke-25" stroke="#000000" stroke-linecap="round" stroke-linejoin="round"></path>
            <path d="M119.092375,82.1623616 L68.3934564,52.8879645" id="Stroke-26" stroke="#000000" stroke-linecap="round" stroke-linejoin="round"></path>
            <path d="M68.3934564,111.43194 L119.092375,82.1623616" id="Stroke-27" stroke="#000000" stroke-linecap="round" stroke-linejoin="round"></path>
            <path d="M68.3934564,52.8879645 L17.6945376,82.1623616" id="Stroke-28" stroke="#000000" stroke-linecap="round" stroke-linejoin="round"></path>
            <path d="M17.6945376,23.6183863 L68.3934564,52.8879645" id="Stroke-29" stroke="#000000" stroke-linecap="round" stroke-linejoin="round"></path>
            <path d="M17.6945376,82.1623616 L17.6945376,23.6183863" id="Stroke-30" stroke="#000000" stroke-linecap="round" stroke-linejoin="round"></path>
        </g>
    </g>
</svg>