<?xml version="1.0" encoding="UTF-8" standalone="no"?>
<svg viewBox="0 0 383 333" version="1.1" xmlns="http://www.w3.org/2000/svg" xmlns:xlink="http://www.w3.org/1999/xlink">
    <title>rectangles</title>
    <g id="Page-1" stroke="none" stroke-width="1" fill="none" fill-rule="evenodd">
        <g id="rectangles">
            <g transform="translate(9.000000, 17.000000)">
                <path d="M87.5032287,304 L262.503229,304 L350,151.996762 L262.503229,0 L87.5032287,0 L0,151.996762 L87.5032287,304 Z" id="Stroke-4" stroke="#D2B4B4" stroke-width="3" stroke-linecap="round" stroke-linejoin="round"></path>
                <path d="M43.7467715,228 L0,151.996762 L131.246771,76 L175,151.996762 L43.7467715,228 Z" id="Fill-7" fill="#0000FF"></path>
                <path d="M175,152 L175,0 L262,0 L262,152 L175,152 Z" id="Fill-8" fill="#0000FF"></path>
                <path d="M306,228.003238 L174.746772,152 L131,228.003238 L262.227404,304 L306,228.003238 Z" id="Fill-9" fill="#0000FF"></path>
                <path d="M175,152 L0,152" id="Stroke-28" stroke="#000000" stroke-width="2" stroke-linecap="round" stroke-linejoin="round"></path>
                <path d="M175,152 L262,0" id="Stroke-29" stroke="#000000" stroke-width="2" stroke-linecap="round" stroke-linejoin="round"></path>
                <path d="M175,152 L262,304" id="Stroke-30" stroke="#000000" stroke-width="2" stroke-linecap="round" stroke-linejoin="round"></path>
                <path d="M175,152 L88,0" id="Stroke-31" stroke="#808080" stroke-width="0.5" stroke-linejoin="round" stroke-dasharray="5.5,4"></path>
                <path d="M175,152 L350,152" id="Stroke-32" stroke="#808080" stroke-width="0.5" stroke-linejoin="round" stroke-dasharray="5.5,4"></path>
                <path d="M175,152 L88,304" id="Stroke-33" stroke="#808080" stroke-width="0.5" stroke-linejoin="round" stroke-dasharray="5.5,4"></path>
            </g>
        </g>
    </g>
</svg>