<?xml version="1.0" encoding="UTF-8" standalone="no"?>
<svg viewBox="0 0 353 308" version="1.1" xmlns="http://www.w3.org/2000/svg" xmlns:xlink="http://www.w3.org/1999/xlink">
    <title>delta</title>
    <defs></defs>
    <g id="Page-1" stroke="none" stroke-width="1" fill="none" fill-rule="evenodd">
        <g id="delta" transform="translate(-13.000000, -15.000000)">
            <path d="M102.250712,321 L276.752137,321 L364.002849,168.996762 L276.752137,17 L102.250712,17 L15,168.996762 L102.250712,321 Z" id="Stroke-5" stroke="#D2B4B4" stroke-width="3" stroke-linecap="round" stroke-linejoin="round"></path>
            <path d="M233.376068,93 L364.002849,168.996762 L233.376068,245 L276.8969,168.996762 L233.376068,93 Z" id="Fill-70" fill="#006400"></path>
            <path d="M101.752137,169 L101.752137,17 L232.378917,93 L145.315815,93 L101.752137,169 Z" id="Fill-72" fill="#006400"></path>
            <path d="M232.378917,245.003238 L101.752137,321 L101.752137,169 L145.315815,245.003238 L232.378917,245.003238 Z" id="Fill-71" fill="#006400"></path>
            <path d="M189.501425,169 L277.250712,17" id="Stroke-41" stroke="#000000" stroke-width="2" stroke-linecap="round" stroke-linejoin="round"></path>
            <path d="M189.501425,169 L276.253561,321" id="Stroke-42" stroke="#000000" stroke-width="2" stroke-linecap="round" stroke-linejoin="round"></path>
            <path d="M188.504274,169 L101.752137,321" id="Stroke-45" stroke="#808080" stroke-width="0.5" stroke-linejoin="round" stroke-dasharray="5.5,4"></path>
            <path d="M188.504274,169 L101.752137,17" id="Stroke-43" stroke="#808080" stroke-width="0.5" stroke-linejoin="round" stroke-dasharray="5.5,4"></path>
            <path d="M102.250712,169 L364.002849,169" id="Stroke-44" stroke="#808080" stroke-width="0.5" stroke-linejoin="round" stroke-dasharray="5.5,4"></path>
            <path d="M189.501425,169 L15,169" id="Stroke-40" stroke="#000000" stroke-width="2" stroke-linecap="round" stroke-linejoin="round"></path>
        </g>
    </g>
</svg>