<?xml version="1.0" encoding="UTF-8" standalone="no"?>
<svg viewBox="0 0 265 213" version="1.1" xmlns="http://www.w3.org/2000/svg" xmlns:xlink="http://www.w3.org/1999/xlink">
    <title>step 1</title>
    <g id="Page-1" stroke="none" stroke-width="1" fill="none" fill-rule="evenodd">
        <g id="step-1" transform="translate(-16.000000, -6.000000)">
            <g transform="translate(17.000000, 7.000000)">
                <path d="M0.444923044,210.59357 L0.444923044,150.549284 L52.4473863,180.571427 L0.444923044,210.59357 Z" id="Fill-3" fill="#D4D4D4"></path>
                <path d="M52.4473863,180.571427 L104.44985,150.549284 L52.4473863,120.522199 L52.4473863,180.571427 Z" id="Fill-4" fill="#D4D4D4"></path>
                <path d="M0.444923044,150.549284 L52.4473863,120.522199 L52.4473863,180.571427 L0.444923044,150.549284 Z" id="Fill-5" fill="#D4D4D4"></path>
                <path d="M52.4473863,120.522199 L104.44985,90.5000566 L104.44985,150.549284 L52.4473863,120.522199 Z" id="Fill-6"></path>
                <path d="M104.44985,150.549284 L156.452313,120.522199 L104.44985,90.5000566 L104.44985,150.549284 Z" id="Fill-7"></path>
                <path d="M156.452313,120.522199 L156.452313,60.477914 L104.44985,90.5000566 L156.452313,120.522199 Z" id="Fill-8"></path>
                <path d="M208.454776,90.5000566 L156.452313,120.522199 L156.452313,60.477914 L208.454776,90.5000566 Z" id="Fill-9"></path>
                <path d="M208.454776,90.5000566 L208.454776,30.4508287 L156.452313,60.477914 L208.454776,90.5000566 Z" id="Fill-10"></path>
                <path d="M208.454776,90.5000566 L260.457239,60.477914 L208.454776,30.4508287 L208.454776,90.5000566 Z" id="Fill-11"></path>
                <path d="M208.454776,30.4508287 L260.457239,0.42868616 L260.457239,60.477914 L208.454776,30.4508287 Z" id="Fill-12"></path>
                <path d="M52.4473863,180.571427 L0.444923044,210.59357" id="Stroke-13" stroke="#000000" stroke-linecap="round" stroke-linejoin="round"></path>
                <path d="M0.444923044,150.549284 L52.4473863,180.571427" id="Stroke-14" stroke="#000000" stroke-linecap="round" stroke-linejoin="round"></path>
                <path d="M0.444923044,210.59357 L0.444923044,150.549284" id="Stroke-15" stroke="#000000" stroke-linecap="round" stroke-linejoin="round"></path>
                <path d="M52.4473863,120.522199 L52.4473863,180.571427" id="Stroke-16" stroke="#000000" stroke-linecap="round" stroke-linejoin="round"></path>
                <path d="M104.44985,150.549284 L52.4473863,120.522199" id="Stroke-17" stroke="#000000" stroke-linecap="round" stroke-linejoin="round"></path>
                <path d="M52.4473863,180.571427 L104.44985,150.549284" id="Stroke-18" stroke="#000000" stroke-linecap="round" stroke-linejoin="round"></path>
                <path d="M52.4473863,180.571427 L0.444923044,150.549284" id="Stroke-19" stroke="#000000" stroke-linecap="round" stroke-linejoin="round"></path>
                <path d="M52.4473863,120.522199 L52.4473863,180.571427" id="Stroke-20" stroke="#000000" stroke-linecap="round" stroke-linejoin="round"></path>
                <path d="M0.444923044,150.549284 L52.4473863,120.522199" id="Stroke-21" stroke="#000000" stroke-linecap="round" stroke-linejoin="round"></path>
                <path d="M104.44985,150.549284 L52.4473863,120.522199" id="Stroke-22" stroke="#000000" stroke-linecap="round" stroke-linejoin="round"></path>
                <path d="M104.44985,90.5000566 L104.44985,150.549284" id="Stroke-23" stroke="#000000" stroke-linecap="round" stroke-linejoin="round"></path>
                <path d="M52.4473863,120.522199 L104.44985,90.5000566" id="Stroke-24" stroke="#000000" stroke-linecap="round" stroke-linejoin="round"></path>
                <path d="M104.44985,90.5000566 L104.44985,150.549284" id="Stroke-25" stroke="#000000" stroke-linecap="round" stroke-linejoin="round"></path>
                <path d="M156.452313,120.522199 L104.44985,90.5000566" id="Stroke-26" stroke="#000000" stroke-linecap="round" stroke-linejoin="round"></path>
                <path d="M104.44985,150.549284 L156.452313,120.522199" id="Stroke-27" stroke="#000000" stroke-linecap="round" stroke-linejoin="round"></path>
                <path d="M104.44985,90.5000566 L156.452313,120.522199" id="Stroke-28" stroke="#000000" stroke-linecap="round" stroke-linejoin="round"></path>
                <path d="M156.452313,60.477914 L104.44985,90.5000566" id="Stroke-29" stroke="#000000" stroke-linecap="round" stroke-linejoin="round"></path>
                <path d="M156.452313,120.522199 L156.452313,60.477914" id="Stroke-30" stroke="#000000" stroke-linecap="round" stroke-linejoin="round"></path>
                <path d="M156.452313,60.477914 L208.454776,90.5000566" id="Stroke-31" stroke="#000000" stroke-linecap="round" stroke-linejoin="round"></path>
                <path d="M156.452313,120.522199 L156.452313,60.477914" id="Stroke-32" stroke="#000000" stroke-linecap="round" stroke-linejoin="round"></path>
                <path d="M208.454776,90.5000566 L156.452313,120.522199" id="Stroke-33" stroke="#000000" stroke-linecap="round" stroke-linejoin="round"></path>
                <path d="M156.452313,60.477914 L208.454776,90.5000566" id="Stroke-34" stroke="#000000" stroke-linecap="round" stroke-linejoin="round"></path>
                <path d="M208.454776,30.4508287 L156.452313,60.477914" id="Stroke-35" stroke="#000000" stroke-linecap="round" stroke-linejoin="round"></path>
                <path d="M208.454776,90.5000566 L208.454776,30.4508287" id="Stroke-36" stroke="#000000" stroke-linecap="round" stroke-linejoin="round"></path>
                <path d="M208.454776,30.4508287 L208.454776,90.5000566" id="Stroke-37" stroke="#000000" stroke-linecap="round" stroke-linejoin="round"></path>
                <path d="M260.457239,60.477914 L208.454776,30.4508287" id="Stroke-38" stroke="#000000" stroke-linecap="round" stroke-linejoin="round"></path>
                <path d="M208.454776,90.5000566 L260.457239,60.477914" id="Stroke-39" stroke="#000000" stroke-linecap="round" stroke-linejoin="round"></path>
                <path d="M260.457239,60.477914 L208.454776,30.4508287" id="Stroke-40" stroke="#000000" stroke-linecap="round" stroke-linejoin="round"></path>
                <path d="M260.457239,0.42868616 L260.457239,60.477914" id="Stroke-41" stroke="#000000" stroke-linecap="round" stroke-linejoin="round"></path>
                <path d="M208.454776,30.4508287 L260.457239,0.42868616" id="Stroke-42" stroke="#000000" stroke-linecap="round" stroke-linejoin="round"></path>
            </g>
        </g>
    </g>
</svg>