<svg width="150px" viewBox="0 0 145 145" xmlns="http://www.w3.org/2000/svg">
  <title>mmt inverted</title>
    <path d="M72.5 4C35.2 4 5 34.2 5 71.5 5 108.8 35.2 139 72.5 139 109.8 139 140 108.8 140 71.5 140 34.2 109.8 4 72.5 4ZM51 36.8C48.2 34.6 47.7 32.3 48.9 29.6 49.3 28.5 50 27.5 50.7 26.5 51 26.2 51.3 25.9 51.5 25.6 51.7 25.5 51.8 25.4 51.8 25.4 52.6 24.6 52.6 23.4 51.9 22.6 51.2 21.8 50 21.8 49.2 22.5 48.9 22.8 48.3 23.4 47.8 24.1 46.8 25.3 45.9 26.6 45.3 28 43.5 32.3 44.4 36.6 48.7 39.9 50.5 41.2 51.4 42.9 51.8 44.8 52.1 46.9 51.7 49.2 50.7 51.6 50.4 52.2 50.1 52.8 49.9 53.3 49.7 53.6 49.6 53.8 49.5 53.9 48.9 54.8 49.2 56 50.1 56.6 50.9 57.2 52.1 56.9 52.7 56.1 53.1 55.4 53.7 54.4 54.2 53.1 55.5 50.1 56.1 47.1 55.6 44.1 55.1 41.2 53.6 38.7 51 36.8ZM72 36.8C69.1 34.6 68.7 32.3 69.8 29.6 70.3 28.5 70.9 27.5 71.7 26.5 72 26.2 72.2 25.9 72.5 25.6 72.6 25.5 72.7 25.4 72.8 25.4 73.6 24.6 73.6 23.4 72.9 22.6 72.2 21.8 71 21.8 70.2 22.5 69.8 22.8 69.3 23.4 68.7 24.1 67.7 25.3 66.9 26.6 66.3 28 64.5 32.3 65.3 36.6 69.6 39.9 71.4 41.2 72.4 42.9 72.7 44.8 73.1 46.9 72.6 49.2 71.7 51.6 71.4 52.2 71.1 52.8 70.8 53.3 70.7 53.6 70.5 53.8 70.5 53.9 69.9 54.8 70.1 56 71 56.6 71.9 57.2 73.1 56.9 73.7 56.1 74.1 55.4 74.6 54.4 75.2 53.1 76.5 50.1 77 47.1 76.5 44.1 76 41.2 74.5 38.7 72 36.8ZM91.6 36.8C88.8 34.6 88.3 32.3 89.5 29.6 89.9 28.5 90.6 27.5 91.3 26.5 91.6 26.2 91.9 25.9 92.1 25.6 92.3 25.5 92.4 25.4 92.4 25.4 93.2 24.6 93.2 23.4 92.5 22.6 91.8 21.8 90.6 21.8 89.8 22.5 89.5 22.8 88.9 23.4 88.4 24.1 87.4 25.3 86.5 26.6 85.9 28 84.1 32.3 84.9 36.6 89.3 39.9 91.1 41.2 92 42.9 92.4 44.8 92.7 46.9 92.3 49.2 91.3 51.6 91 52.2 90.7 52.8 90.4 53.3 90.3 53.6 90.2 53.8 90.1 53.9 89.5 54.8 89.8 56 90.6 56.6 91.5 57.2 92.7 56.9 93.3 56.1 93.7 55.4 94.3 54.4 94.8 53.1 96.1 50.1 96.7 47.1 96.2 44.1 95.7 41.2 94.2 38.7 91.6 36.8ZM42.7 100L23.1 100C21 100 19.6 102.1 20.2 104 21.2 107 23.6 109.3 26.6 111.2 29.7 113.2 33.5 114.8 38 116.2 47 118.8 58.7 120.4 71.5 120.4 84.3 120.4 95.9 118.8 104.9 116.2 109.4 114.8 113.3 113.2 116.3 111.2 119.4 109.3 121.7 107 122.7 104 123.4 102.1 121.9 100 119.9 100L100.6 100C102.4 96.8 104.9 91.3 105.7 89.7 107.6 92.8 110.8 95.3 114.5 95.3 118.1 95.3 121.1 92.8 123 89.7 124.9 86.6 125.9 82.7 125.9 78.3 125.9 74 124.9 70 123 66.9 121.1 63.8 118.1 61.4 114.5 61.4 112.2 61.4 110.2 62.4 108.5 63.8 108.4 62.7 108.5 61.5 108.3 60.3 108.1 58.9 106.8 57.8 105.3 57.8L38 57.8C36.5 57.8 35.3 58.9 35 60.3 34.6 63.4 34.3 66.5 34.3 69.8 34.3 81.2 37.5 91.7 42.7 100ZM91.8 101.7C90.6 103.1 89.4 104.3 88 105.4L55.3 105.4C54 104.3 52.7 103.1 51.5 101.7 44.8 94.1 40.3 82.7 40.3 69.8 40.3 67.7 40.6 65.8 40.8 63.8L102.5 63.8C102.8 65.8 103 67.7 103 69.8 103 82.7 98.5 94.1 91.8 101.7ZM117.9 86.6C116.7 88.6 115.5 89.3 114.5 89.3 113.5 89.3 112.2 88.6 111 86.6 109.9 84.7 109 81.7 109 78.3 109 75 109.9 72 111 70 112.2 68.1 113.5 67.4 114.5 67.4 115.5 67.4 116.7 68.1 117.9 70 119.1 72 119.9 75 119.9 78.3 119.9 81.7 119.1 84.7 117.9 86.6ZM90.1 111.5C92.4 110.2 94.4 107.9 96 106L113.3 106C113.2 106.1 113.2 106.1 113.1 106.2 110.7 107.7 107.3 109.2 103.2 110.4 94.9 112.9 83.8 114.4 71.5 114.4 59.2 114.4 48 112.9 39.7 110.4 35.6 109.2 32.2 107.7 29.8 106.2 29.8 106.1 29.7 106.1 29.7 106L47.3 106C49.3 108 50.9 110 53.1 111.3 65.5 111.6 78.8 111.7 90.1 111.5ZM84.6 72.4C84.3 72 84.1 71.5 84.2 70.9 84.3 70.3 84.6 69.8 85.2 69.3 86.1 68.5 87.4 68 89 67.9 90.6 67.8 91.7 68.1 92.3 68.8 92.7 69.3 92.7 69.8 92.1 70.2 91.5 70.8 90.7 71 89.6 70.9 88.5 70.8 87.4 70.5 86.5 69.8 85.5 70.8 85.4 71.6 86 72.3 86.6 73 87.5 73.2 88.8 72.9 88.8 73 88.8 73.2 88.7 73.2 88.6 73.4 88.2 73.4 87.7 73.4 86.3 73.4 85.2 73.1 84.6 72.4ZM90.7 70.1C91.2 69.7 91.3 69.2 90.8 68.7 90.5 68.4 90 68.2 89.3 68.3 88.7 68.4 88 68.7 87.2 69.2 87.3 69.3 87.4 69.4 87.5 69.5 87.9 70.1 88.5 70.4 89.1 70.5 89.8 70.6 90.3 70.5 90.7 70.1ZM56.7 86.9L57.4 87.6 56.4 88.5 62.4 101 61.9 101.5 55.3 98.7 54.8 99.9 54.3 99.7 55.3 97.3 61 99.8 55.4 88.1 56.7 86.9ZM70.2 73.9C69.7 74.7 69 75.3 68.1 75.7 67.3 75.9 66.6 76.1 65.8 76.1 65 76.2 64.3 76.1 63.7 76 63.1 75.9 62.5 75.7 61.8 75.5 61.2 75.3 60.9 75.2 60.8 75.2 60.7 75.5 60.5 75.9 60.4 76.4 60.2 76.9 60 77.4 59.7 78 59.4 78.5 59 79.1 58.5 79.7 58 80.3 57.4 80.8 56.7 81.2 55.9 81.8 55 82 54 81.9 53.1 81.8 52.2 81.4 51.5 80.8 50.7 80.2 50.2 79.5 49.9 78.7 49.6 78 49.5 77.2 49.6 76.5 49.7 75.7 50 75 50.4 74.3 50.8 73.7 51.4 73.2 52.1 72.8 52.8 72.4 53.5 72.2 54.4 72.1 55 72.1 55.5 72.1 56 72.2 56.4 72.2 56.9 72.3 57.4 72.4 57.9 72.6 58.7 72.8 59.8 73.1 60.2 72.1 60.6 71.3 60.8 70.8 61 70.3 61.2 69.9 61.5 69.5 61.7 69.1 62 68.6 62.4 68.2 62.9 67.5 63.6 67 64.3 66.7 65.1 66.4 65.8 66.3 66.6 66.4 67.4 66.5 68.1 66.7 68.7 67.1 69.4 67.5 69.9 68 70.3 68.6 70.8 69.4 71 70.3 71 71.2 71 72.2 70.7 73.1 70.2 73.9ZM56.6 79.4C57.3 78.8 57.8 78.2 58.1 77.7 58.3 77.2 58.7 76.2 59.3 74.6 58 74.3 57.1 74.1 56.3 74 55.6 73.9 55 73.8 54.4 73.9 53.7 74 53.1 74.2 52.6 74.5 52.2 74.9 51.9 75.3 51.7 75.8 51.5 76.3 51.4 76.7 51.4 77.2 51.4 77.7 51.5 78.2 51.7 78.5 52 79.1 52.4 79.5 53 79.8 53.6 80.1 54.2 80.2 54.9 80.1 55.5 80 56.1 79.8 56.6 79.4ZM63.8 69.3C63.4 69.7 63 70.3 62.6 70.9 62.3 71.5 61.8 72.4 61.3 73.6 62.3 74 63.1 74.2 63.6 74.4 64.2 74.5 64.7 74.6 65.1 74.6 65.6 74.6 66.1 74.5 66.7 74.4 67.4 74.3 67.9 74 68.3 73.5 68.8 73 69.1 72.5 69.2 71.8 69.4 71.2 69.3 70.6 69.1 70 68.8 69.5 68.4 69.1 67.9 68.7 67.3 68.3 66.6 68.1 65.9 68.2 65.2 68.2 64.5 68.6 63.8 69.3ZM86.3 89.2C85.8 90.6 85.5 91.8 85.2 92.8 84.6 95.2 84.5 96.8 85 97.4 85.4 98.1 86 98.6 86.8 98.8 88.4 99.2 89.7 98.4 90.5 96.3L91.5 96.6C89.7 101.2 87.1 103.2 83.9 102.4 82.4 102 81.3 101.2 80.6 100 79.9 98.9 79.8 97.4 80.2 95.5 80.4 94.9 80.7 94 81.1 92.7 81.5 91.4 82 89.8 82.7 87.9L85.2 80.5 79.7 79.1C78.8 82.3 77.9 85 77.1 87.2 76.3 89.5 75.6 91.3 75 92.8 73.8 95.5 72.7 97.3 71.8 98 71 98.7 70.1 98.9 69 98.6 68.3 98.4 67.7 98 67.2 97.4 66.8 96.8 66.7 96.2 66.8 95.4 67 94.6 67.7 93.8 69 92.7 70.8 91.3 72.3 89.6 73.5 87.7 74.1 86.8 74.7 85.6 75.4 84 76 82.5 76.7 80.7 77.4 78.5L75.6 78.1C74.2 77.7 73 77.8 72.1 78.2 71.2 78.7 70.3 79.4 69.3 80.4L68.3 80.2C69.3 78.5 70.4 77.1 71.4 76.1 72.5 75.1 73.5 74.5 74.5 74.3 75.4 74.2 76.9 74.4 79.1 74.9L95.7 79.1 94.8 82.9 88.8 81.4 86.3 89.2Z" fill-rule="evenodd" fill="#D5091F"/></svg>